<svg width="101" height="16" viewBox="0 0 101 16" fill="none" xmlns="http://www.w3.org/2000/svg">
<g clip-path="url(#clip0_1_623)">
<path d="M3.20861 13.033H11.2082V9.79827H3.20861V13.033ZM3.20861 6.53986H11.2082V3.25841H3.20861V6.53986ZM12.8132 16.2914H0V0.000698864H12.8132L14.3948 1.65329V6.54056L12.8132 8.16943L14.3948 9.79827V14.6855L12.8132 16.2914ZM19.896 16.2914H16.6867V0.000698864H19.896V16.2914ZM35.0019 16.2914H23.7703L22.1887 14.6855V1.65259L23.7703 0H35.0019L36.5835 1.65259V4.88727H33.3976V3.25841H25.398V13.033H33.3976V10.2172H29.3631V6.95877H36.5835V14.6855L35.0019 16.2914ZM42.0848 8.16943H50.0843V3.25911H42.0848V8.16943ZM42.0848 16.2914H38.8755V0.000698864H51.6886L53.2702 1.65329V9.79897L51.6886 11.4278H42.0841V16.2921L42.0848 16.2914ZM55.3339 0.000698864H58.5432V13.0337H68.9496V16.2921H55.3339V0.00139773V0.000698864ZM73.5342 8.16943H81.5337V3.25911H76.7201L73.5342 6.54056V8.16943ZM73.5342 16.2914H70.3249V4.911L75.1158 0.000698864H84.7203V16.2914H81.5344V11.4271H73.5349V16.2914H73.5342ZM95.3557 16.2914H92.1697V10.1474L86.5536 6.07488V0.000698864H89.7629V4.70155L93.7287 7.4475L97.7632 4.70155V0.000698864H100.949V6.07488L95.3564 10.1474V16.2914H95.3557Z" fill="#141320"/>
</g>
<defs>
<clipPath id="clip0_1_623">
<rect width="101" height="16" fill="white"/>
</clipPath>
</defs>
</svg>
