<svg width="49" height="48" viewBox="0 0 49 48" fill="none" xmlns="http://www.w3.org/2000/svg">
<path d="M14.5 40C14.5 36.6863 18.9772 34 24.5 34C30.0228 34 34.5 36.6863 34.5 40" stroke="#926BE6" stroke-width="1.14286" stroke-linecap="round" stroke-linejoin="round"/>
<path d="M36.5 28.499C40.0318 29.4249 42.5 31.5394 42.5 33.9998" stroke="#926BE6" stroke-width="1.14286" stroke-linecap="round" stroke-linejoin="round"/>
<path d="M12.5 28.499C8.96819 29.4249 6.5 31.5394 6.5 33.9998" stroke="#926BE6" stroke-width="1.14286" stroke-linecap="round" stroke-linejoin="round"/>
<path d="M24.5 28C27.8137 28 30.5 25.3137 30.5 22C30.5 18.6863 27.8137 16 24.5 16C21.1863 16 18.5 18.6863 18.5 22C18.5 25.3137 21.1863 28 24.5 28Z" stroke="#926BE6" stroke-width="1.14286" stroke-linecap="round" stroke-linejoin="round"/>
<path d="M36.5 20.4722C37.7275 19.3736 38.5 17.777 38.5 16C38.5 12.6863 35.8137 10 32.5 10C30.9633 10 29.5615 10.5777 28.5 11.5278" stroke="#926BE6" stroke-width="1.14286" stroke-linecap="round" stroke-linejoin="round"/>
<path d="M12.5 20.4722C11.2725 19.3736 10.5 17.777 10.5 16C10.5 12.6863 13.1863 10 16.5 10C18.0367 10 19.4385 10.5777 20.5 11.5278" stroke="#926BE6" stroke-width="1.14286" stroke-linecap="round" stroke-linejoin="round"/>
</svg>
