<svg width="49" height="48" viewBox="0 0 49 48" fill="none" xmlns="http://www.w3.org/2000/svg">
<path d="M22.0086 6.91759C23.4442 5.69414 25.5558 5.69414 26.9914 6.91759L29.4333 8.99858C30.0486 9.52286 30.8135 9.8397 31.6192 9.904L34.8174 10.1592C36.6977 10.3093 38.1907 11.8023 38.3408 13.6826L38.596 16.8808C38.6603 17.6865 38.9771 18.4515 39.5014 19.0667L41.5824 21.5086C42.8059 22.9442 42.8059 25.0558 41.5824 26.4914L39.5014 28.9333C38.9771 29.5486 38.6603 30.3135 38.596 31.1192L38.3408 34.3174C38.1907 36.1977 36.6977 37.6907 34.8174 37.8408L31.6192 38.096C30.8135 38.1603 30.0486 38.4771 29.4333 39.0014L26.9914 41.0824C25.5558 42.3059 23.4442 42.3059 22.0086 41.0824L19.5667 39.0014C18.9515 38.4771 18.1865 38.1603 17.3808 38.096L14.1826 37.8408C12.3023 37.6907 10.8093 36.1977 10.6592 34.3174L10.404 31.1192C10.3397 30.3135 10.0229 29.5486 9.49858 28.9333L7.41759 26.4914C6.19414 25.0558 6.19414 22.9442 7.41759 21.5086L9.49858 19.0667C10.0229 18.4515 10.3397 17.6865 10.404 16.8808L10.6592 13.6826C10.8093 11.8023 12.3023 10.3093 14.1826 10.1592L17.3808 9.904C18.1865 9.8397 18.9515 9.52286 19.5667 8.99858L22.0086 6.91759Z" stroke="#926BE6" stroke-width="1.14286" stroke-linecap="round" stroke-linejoin="round"/>
<path d="M30.5 20L22.5 28L18.5 24" stroke="#926BE6" stroke-width="1.14286" stroke-linecap="round" stroke-linejoin="round"/>
</svg>
